<?xml version="1.0" standalone="no"?>
<!DOCTYPE svg PUBLIC "-//W3C//DTD SVG 20010904//EN"
 "http://www.w3.org/TR/2001/REC-SVG-20010904/DTD/svg10.dtd">
<svg version="1.0" xmlns="http://www.w3.org/2000/svg"
 width="563.000000pt" height="563.000000pt" viewBox="0 0 563.000000 563.000000"
 preserveAspectRatio="xMidYMid meet">
<metadata>
Created by potrace 1.14, written by Peter Selinger 2001-2017
</metadata>
<g transform="translate(0.000000,563.000000) scale(0.100000,-0.100000)"
fill="#000000" stroke="none">
<path d="M2638 5625 c-1 -1 -39 -5 -83 -9 -337 -28 -746 -148 -1045 -308 -313
-167 -530 -338 -805 -632 -72 -77 -206 -256 -279 -375 -231 -374 -373 -796
-414 -1231 -9 -96 -8 -435 1 -520 19 -174 45 -314 88 -475 154 -568 490 -1084
946 -1450 91 -73 243 -180 298 -211 11 -6 64 -37 118 -68 54 -31 103 -56 107
-56 5 0 24 -9 42 -19 129 -76 520 -199 748 -235 159 -25 197 -28 425 -31 320
-4 557 28 835 112 999 300 1749 1123 1954 2143 25 125 31 161 46 300 8 81 5
500 -5 565 -28 191 -41 258 -72 380 -87 345 -230 653 -445 956 -37 52 -76 104
-85 115 -10 10 -39 44 -64 74 -66 79 -203 216 -279 280 -36 30 -67 57 -70 60
-31 31 -293 220 -305 220 -3 0 -34 18 -70 40 -279 171 -680 307 -1045 356 -25
3 -58 7 -75 10 -37 5 -462 14 -467 9z"/>
</g>
</svg>
